# xmcd CD database file
#
# Track frame offsets:
#	182
#	11457
#	21407
#	32185
#	43707
#	56225
#	67367
#	79455
#	90645
#	102367
#	114535
#	126410
#	137685
#	149577
#	160452
#	172372
#	182855
#	195207
#	207187
#	224740
#
# Disc length: 3196 seconds
#
# Revision: 1
# Processed by: cddbd v1.4PL0 Copyright (c) Steve Scherf et al.
# Submitted via: CDex 1.50
#
DISCID=420c7a14
DTITLE=Brook Benton - Endlessly
DYEAR=1998
DGENRE=Blues
TTITLE0=It's Just A Matter Of Time
TTITLE1=Hurtin' Inside
TTITLE2=Endlessly
TTITLE3=So Many Ways
TTITLE4=Baby (You've Got What It Takes)
TTITLE5=A Rockin' Good Way
TTITLE6=Kiddio
TTITLE7=Fools Rush In
TTITLE8=Think Twice
TTITLE9=The Boll Weevil Song
TTITLE10=It's Just A House Without You
TTITLE11=Frankie And Johnny
TTITLE12=Revenge
TTITLE13=Shadrack
TTITLE14=Hit Record
TTITLE15=Lie To Me
TTITLE16=Hotel Happiness
TTITLE17=Still Waters Run Deep
TTITLE18=Rainy Night In Georgia
TTITLE19=Don't It Make You Want To Go Home
EXTD=YEAR: 1998
EXTT0=
EXTT1=
EXTT2=
EXTT3=
EXTT4=
EXTT5=
EXTT6=
EXTT7=
EXTT8=
EXTT9=
EXTT10=
EXTT11=
EXTT12=
EXTT13=
EXTT14=
EXTT15=
EXTT16=
EXTT17=
EXTT18=
EXTT19=
PLAYORDER=
